Coordinates
version=1
nRows=21
nColumns=19
inDegrees=yes

Units are S.I. units (second, meters, Newtons, ...)
If the header above contains a line with 'inDegrees', this indicates whether rotational values are in degrees (yes) or radians (no).

endheader
time	pelvis_tilt	pelvis_list	pelvis_rotation	pelvis_tx	pelvis_ty	pelvis_tz	hip_flexion_r	hip_adduction_r	hip_rotation_r	knee_angle_r	knee_angle_r_beta	ankle_angle_r	hip_flexion_l	hip_adduction_l	hip_rotation_l	knee_angle_l	knee_angle_l_beta	ankle_angle_l
     14.84666667	     -0.64990596	     -7.38049640	     -0.71353569	      2.11628392	      1.11764620	      1.05240812	     23.98005378	     11.12447221	     -5.49381922	     14.12484131	      0.24652499	      9.66381373	    -25.17761060	    -12.78763399	    -22.05042321	     45.11675421	      0.78743591	    -16.34345124
     14.85333333	     -0.10943846	     -7.84110010	     -0.71579417	      2.11641452	      1.11399853	      1.05323348	     22.91695971	     11.60716633	     -5.94622142	     13.99877913	      0.24432479	      8.87670321	    -24.71246966	    -13.53604533	    -20.86767049	     48.96398464	      0.85458275	    -16.52958608
     14.86000000	      0.32020350	     -8.28858513	     -0.76570084	      2.11612035	      1.10992228	      1.05397235	     22.21369353	     12.01751605	     -6.60674260	     14.58455536	      0.25454851	      8.08291835	    -23.96777669	    -14.15494491	    -19.54352708	     52.93006812	      0.92380396	    -16.73934791
     14.86666667	      0.69864690	     -8.73374970	     -0.89928172	      2.11540617	      1.10547485	      1.05461774	     21.81525508	     12.36608081	     -7.45622847	     15.88912139	      0.27731748	      7.35952228	    -23.07025095	    -14.65560215	    -18.24510672	     56.94418986	      0.99386360	    -17.00484099
     14.87333333	      1.11942214	     -9.17536388	     -1.14262283	      2.11427177	      1.10079953	      1.05517316	     21.56408870	     12.66439114	     -8.35884158	     17.78839341	      0.31046603	      6.76478817	    -22.15990008	    -15.03483283	    -17.06366867	     60.95530310	      1.06387074	    -17.24017862
     14.88000000	      0.82258618	     -9.38851501	     -1.40239364	      2.11265702	      1.09522066	      1.05559275	     22.29476141	     12.62922314	     -9.30914638	     20.25914846	      0.35358884	      6.34054413	    -20.19677169	    -15.11159403	    -15.53479206	     65.15444835	      1.13715965	    -17.32661450
     14.88666667	      0.88933199	     -9.72016474	     -1.80500603	      2.11069377	      1.08976518	      1.05586728	     22.70648925	     12.71815156	    -10.07469133	     23.05232685	      0.40233900	      6.18428499	    -18.70923957	    -15.22477943	    -14.44896885	     69.19435037	      1.20766924	    -17.27174711
     14.89333333	      0.95838494	    -10.08895978	     -2.28987389	      2.10840467	      1.08416648	      1.05603556	     23.14903535	     12.84362003	    -10.65978829	     26.04508125	      0.45457242	      6.33671285	    -17.19752884	    -15.35203311	    -13.55991467	     73.17737779	      1.27718618	    -17.01265321
     14.90000000	      1.58931860	    -10.76359061	     -2.85132581	      2.10588377	      1.07907052	      1.05607441	     22.88902762	     13.34158831	    -10.94842573	     28.97193397	      0.50565564	      6.88938185	    -16.43373311	    -15.79310310	    -13.16302753	     76.94047339	      1.34286459	    -16.49141809
     14.90666667	      1.07464008	    -11.00585547	     -3.48143591	      2.10290411	      1.07294207	      1.05617018	     23.91469705	     13.43716951	    -10.99081794	     32.04421748	      0.55927710	      7.71805556	    -14.07869031	    -15.80268925	    -12.31906448	     80.88229975	      1.41166244	    -15.76296648
     14.91333333	      1.14290092	    -11.62364115	     -4.12565766	      2.09980012	      1.06756460	      1.05617625	     24.11147547	     13.99667992	    -10.83771550	     34.80356075	      0.60743673	      8.87316752	    -12.48392130	    -16.26090542	    -11.88050666	     84.57802255	      1.47616497	    -14.82518152
     14.92000000	      1.22405415	    -12.30108026	     -4.72608343	      2.09648927	      1.06255986	      1.05606902	     24.13557312	     14.66170259	    -10.55711452	     37.29794907	      0.65097202	     10.26459539	    -10.81994977	    -16.80719291	    -11.39374441	     88.13745012	      1.53828870	    -13.68271737
     14.92666667	      1.23175666	    -13.05921275	     -5.26942266	      2.09308978	      1.05786208	      1.05592022	     24.04524533	     15.44837657	    -10.22038599	     39.46187054	      0.68873957	     11.84834694	     -8.97260374	    -17.50161162	    -10.80890742	     91.57725745	      1.59832466	    -12.46779522
     14.93333333	      1.17697448	    -13.84769514	     -5.70603293	      2.08964286	      1.05361587	      1.05567400	     23.81909129	     16.27928067	     -9.87439690	     41.26202424	      0.72015818	     13.52897111	     -6.91933449	    -18.25103006	    -10.01374419	     94.85236680	      1.65548610	    -11.21201981
     14.94000000	      1.06547739	    -14.63670917	     -5.98382448	      2.08621955	      1.04987925	      1.05529763	     23.44337112	     17.09169230	     -9.59264331	     42.66949339	      0.74472315	     15.22600026	     -4.62428065	    -19.01368812	     -8.93168708	     97.94786059	      1.70951266	     -9.97626792
     14.94666667	      0.82519632	    -15.27992653	     -6.14651398	      2.08283284	      1.04658188	      1.05483613	     23.03781802	     17.73452860	     -9.33964447	     43.77419922	      0.76400390	     16.90209627	     -1.98698842	    -19.55950404	     -7.53743791	    100.83692609	      1.75993637	     -8.82782851
     14.95333333	      0.47187011	    -15.79660516	     -6.15864244	      2.07957224	      1.04378015	      1.05427823	     22.57504487	     18.21856271	     -9.16209863	     44.53863622	      0.77734585	     18.47153529	      0.96961700	    -19.90823741	     -5.84264744	    103.48873481	      1.80621916	     -7.79942772
     14.96000000	      0.10340843	    -16.23454117	     -5.95113005	      2.07650702	      1.04157695	      1.05353900	     21.95384504	     18.55808584	     -9.12940842	     44.94572393	      0.78445087	     19.89600907	      4.13131112	    -20.06118191	     -3.82950213	    105.87920029	      1.84794065	     -6.92442630
     14.96666667	     -0.03566222	    -16.59290853	     -5.51381358	      2.07372779	      1.04025091	      1.05261639	     20.89868369	     18.76133165	     -9.17969361	     44.98598862	      0.78515362	     21.13171801	      7.14137671	    -19.98403774	     -1.64714608	    107.91685309	      1.88350440	     -6.19435095
     14.97333333	     -0.78217762	    -16.57691043	     -5.26097185	      2.07100262	      1.03881864	      1.05203769	     20.41900107	     18.67420755	     -9.08153598	     44.94195507	      0.78438509	     22.23070294	     10.85928761	    -19.42273410	      0.48906254	    109.70628547	      1.91473589	     -5.62337576
     14.98000000	     -0.59839481	    -16.48025871	     -5.23133609	      2.06876762	      1.03934792	      1.05176563	     18.60325348	     18.65627002	     -8.29221964	     44.49791380	      0.77663511	     23.14930408	     13.14103899	    -18.78433298	      1.80997084	    110.86226901	      1.93491161	     -5.05483145
